SplineFontDB: 3.2
FontName: esaaya
FullName: Esaaya
FamilyName: esaaya
Weight: Regular
Copyright: Copyright (c) 2024, Michael Chapman
UComments: "2024-11-22: Created with FontForge (http://fontforge.org)"
Version: 001.000
DefaultBaseFilename: esaaya
ItalicAngle: 0
UnderlinePosition: 0
UnderlineWidth: 0
Ascent: 512
Descent: 512
InvalidEm: 0
LayerCount: 2
Layer: 0 0 "Back" 1
Layer: 1 0 "Fore" 0
XUID: [1021 96 -335474456 15605780]
StyleMap: 0x0040
FSType: 0
OS2Version: 4
OS2_WeightWidthSlopeOnly: 0
OS2_UseTypoMetrics: 1
CreationTime: 1732266389
ModificationTime: 1739265505
PfmFamily: 33
TTFWeight: 400
TTFWidth: 5
LineGap: 0
VLineGap: 0
Panose: 2 0 6 3 0 0 0 0 0 0
OS2TypoAscent: 512
OS2TypoAOffset: 0
OS2TypoDescent: -512
OS2TypoDOffset: 0
OS2TypoLinegap: 0
OS2WinAscent: 512
OS2WinAOffset: 0
OS2WinDescent: -512
OS2WinDOffset: 0
HheadAscent: 512
HheadAOffset: 0
HheadDescent: -512
HheadDOffset: 0
OS2SubXSize: 256
OS2SubYSize: 256
OS2SubXOff: 0
OS2SubYOff: 128
OS2SupXSize: 256
OS2SupYSize: 256
OS2SupXOff: 0
OS2SupYOff: 768
OS2StrikeYSize: 64
OS2StrikeYPos: 0
OS2CapHeight: 448
OS2XHeight: 448
OS2Vendor: 'PfEd'
OS2CodePages: 00000001.00000000
OS2UnicodeRanges: 00000003.00000000.00000000.00000000
MarkAttachClasses: 1
DEI: 91125
LangName: 1033
Encoding: ISO8859-1
UnicodeInterp: none
NameList: AGL For New Fonts
DisplaySize: -48
AntiAlias: 1
FitToEm: 0
WinInfo: 16 16 11
BeginPrivate: 0
EndPrivate
Grid
640 -512 m 25
 640 512 l 1049
384 -512 m 25
 384 512 l 1049
0 128 m 25
 1024 128 l 1049
0 -128 m 25
 1024 -128 l 1049
256 0 m 0
 256 -141 371 -256 512 -256 c 0
 653 -256 768 -141 768 0 c 0
 768 141 653 256 512 256 c 0
 371 256 256 141 256 0 c 0
128 0 m 0
 128 212 300 384 512 384 c 0
 724 384 896 212 896 0 c 0
 896 -212 724 -384 512 -384 c 0
 300 -384 128 -212 128 0 c 0
0 -64 m 25
 1024 -64 l 1049
0 64 m 25
 1024 64 l 1049
448 -512 m 25
 448 512 l 1049
576 -512 m 25
 576 512 l 1049
768 -512 m 25
 768 512 l 1049
256 -512 m 25
 256 512 l 1049
0 -256 m 25
 1024 -256 l 1049
0 256 m 25

StartChar: less
Encoding: 60 60 0
Width: 1024
VWidth: 1689
Flags: HW
LayerCount: 2
Fore
SplineSet
768 384 m 5
 768 256 l 1
 512 0 l 1
 768 -256 l 1
 768 -384 l 1
 256 0 l 1
 768 384 l 5
EndSplineSet
Validated: 1
EndChar

StartChar: greater
Encoding: 62 62 1
Width: 1024
VWidth: 1689
Flags: HW
LayerCount: 2
Fore
SplineSet
256 384 m 1
 768 0 l 1
 256 -384 l 1
 256 -256 l 1
 512 0 l 1
 256 256 l 1
 256 384 l 1
EndSplineSet
Validated: 1
EndChar

StartChar: period
Encoding: 46 46 2
Width: 1024
Flags: HW
LayerCount: 2
Fore
SplineSet
422 -192 m 0
 422 -142 462 -101 512 -101 c 0
 562 -101 602 -142 602 -192 c 0
 602 -242 562 -283 512 -283 c 0
 462 -283 422 -242 422 -192 c 0
422 192 m 0
 422 242 462 283 512 283 c 0
 562 283 602 242 602 192 c 0
 602 142 562 101 512 101 c 0
 462 101 422 142 422 192 c 0
EndSplineSet
Validated: 1
EndChar

StartChar: b
Encoding: 98 98 4
Width: 1024
Flags: HW
LayerCount: 2
Fore
SplineSet
672 -256 m 6
 725 -256 768 -213 768 -160 c 4
 768 -108 725 -64 672 -64 c 6
 256 -64 l 1
 256 -256 l 1
 672 -256 l 6
672 -384 m 6
 128 -384 l 1
 128 384 l 1
 896 384 l 1
 896 256 l 1
 256 256 l 1
 256 64 l 1
 672 64 l 6
 795 64 896 -36 896 -159 c 4
 896 -283 796 -384 672 -384 c 6
EndSplineSet
EndChar

StartChar: d
Encoding: 100 100 5
Width: 1024
Flags: HW
LayerCount: 2
Fore
SplineSet
352 -256 m 6
 768 -256 l 5
 768 -64 l 5
 352 -64 l 6
 299 -64 256 -108 256 -160 c 4
 256 -213 299 -256 352 -256 c 6
352 -384 m 6
 228 -384 128 -283 128 -159 c 4
 128 -36 229 64 352 64 c 6
 768 64 l 5
 768 256 l 5
 128 256 l 5
 128 384 l 5
 896 384 l 5
 896 -384 l 5
 352 -384 l 6
EndSplineSet
EndChar

StartChar: e
Encoding: 101 101 6
Width: 1024
VWidth: 1689
Flags: HW
LayerCount: 2
Fore
SplineSet
128 256 m 5
 128 384 l 5
 512 384 l 6
 618 384 709 347 784 272 c 4
 859 197 896 106 896 0 c 4
 896 -106 859 -197 784 -272 c 4
 709 -347 617 -384 512 -384 c 6
 128 -384 l 5
 128 -256 l 5
 512 -256 l 6
 583 -256 643 -231 693 -181 c 4
 743 -131 768 -71 768 0 c 4
 768 71 743 131 693 181 c 4
 643 231 583 256 512 256 c 6
 128 256 l 5
EndSplineSet
Validated: 1
EndChar

StartChar: f
Encoding: 102 102 7
Width: 1024
Flags: HW
LayerCount: 2
Fore
SplineSet
128 384 m 5
 896 384 l 5
 896 256 l 5
 340 256 l 5
 644 64 l 5
 644 -64 l 5
 340 -256 l 5
 896 -256 l 5
 896 -384 l 5
 128 -384 l 5
 128 -256 l 5
 512 0 l 5
 128 256 l 5
 128 384 l 5
EndSplineSet
Validated: 1
EndChar

StartChar: g
Encoding: 103 103 8
Width: 1024
Flags: HW
LayerCount: 2
Fore
SplineSet
352 256 m 6
 299 256 256 213 256 160 c 4
 256 108 299 64 352 64 c 6
 768 64 l 1
 768 256 l 1
 352 256 l 6
352 384 m 6
 896 384 l 1
 896 -384 l 1
 128 -384 l 1
 128 -256 l 1
 768 -256 l 1
 768 -64 l 1
 352 -64 l 6
 229 -64 128 36 128 159 c 4
 128 283 228 384 352 384 c 6
EndSplineSet
EndChar

StartChar: h
Encoding: 104 104 9
Width: 1024
Flags: HW
LayerCount: 2
Fore
SplineSet
896 -384 m 5
 128 -384 l 5
 128 -256 l 5
 684 -256 l 5
 380 -64 l 5
 380 64 l 5
 684 256 l 5
 128 256 l 5
 128 384 l 5
 896 384 l 5
 896 256 l 5
 512 0 l 5
 896 -256 l 5
 896 -384 l 5
EndSplineSet
Validated: 1
EndChar

StartChar: i
Encoding: 105 105 10
Width: 1024
VWidth: 1689
Flags: HW
LayerCount: 2
Fore
SplineSet
768 -384 m 5
 768 0 l 6
 768 71 743 131 693 181 c 4
 643 231 583 256 512 256 c 4
 441 256 381 231 331 181 c 4
 281 131 256 71 256 0 c 6
 256 -384 l 5
 128 -384 l 5
 128 0 l 6
 128 105 165 197 240 272 c 4
 315 347 406 384 512 384 c 4
 618 384 709 347 784 272 c 4
 859 197 896 106 896 0 c 6
 896 -384 l 5
 768 -384 l 5
EndSplineSet
Validated: 1
EndChar

StartChar: k
Encoding: 107 107 11
Width: 1024
Flags: HW
LayerCount: 2
Fore
SplineSet
128 -256 m 1
 441 -256 l 1
 128 384 l 1
 256 384 l 1
 512 -128 l 1
 768 384 l 1
 896 384 l 1
 581 -256 l 1
 896 -256 l 1
 896 -384 l 1
 128 -384 l 1
 128 -256 l 1
EndSplineSet
Validated: 1
EndChar

StartChar: l
Encoding: 108 108 12
Width: 1024
Flags: HW
LayerCount: 2
Fore
SplineSet
352 384 m 6
 896 384 l 5
 896 -384 l 5
 768 -384 l 5
 768 -64 l 5
 542 -64 l 5
 288 -384 l 5
 128 -384 l 5
 381 -64 l 5
 352 -64 l 6
 229 -64 128 36 128 159 c 4
 128 283 228 384 352 384 c 6
352 256 m 6
 299 256 256 213 256 160 c 4
 256 108 299 64 352 64 c 6
 768 64 l 5
 768 256 l 5
 352 256 l 6
EndSplineSet
Validated: 1
EndChar

StartChar: m
Encoding: 109 109 13
Width: 1024
Flags: HW
LayerCount: 2
Fore
SplineSet
128 -384 m 5
 128 -256 l 5
 703 -256 l 5
 128 256 l 5
 128 384 l 5
 896 384 l 5
 896 256 l 5
 321 256 l 5
 896 -256 l 5
 896 -384 l 5
 128 -384 l 5
EndSplineSet
Validated: 1
EndChar

StartChar: n
Encoding: 110 110 14
Width: 1024
Flags: HW
LayerCount: 2
Fore
SplineSet
128 -384 m 5
 128 384 l 5
 256 384 l 5
 768 -191 l 5
 768 384 l 5
 896 384 l 5
 896 -384 l 5
 768 -384 l 5
 256 191 l 5
 256 -384 l 5
 128 -384 l 5
EndSplineSet
Validated: 1
EndChar

StartChar: p
Encoding: 112 112 15
Width: 1024
Flags: HW
LayerCount: 2
Fore
SplineSet
672 256 m 6
 256 256 l 5
 256 64 l 5
 672 64 l 6
 725 64 768 108 768 160 c 4
 768 213 725 256 672 256 c 6
672 384 m 6
 796 384 896 283 896 159 c 4
 896 36 795 -64 672 -64 c 6
 256 -64 l 5
 256 -256 l 5
 896 -256 l 5
 896 -384 l 5
 128 -384 l 5
 128 384 l 5
 672 384 l 6
EndSplineSet
EndChar

StartChar: r
Encoding: 114 114 16
Width: 1024
Flags: HW
LayerCount: 2
Fore
SplineSet
672 384 m 2
 796 384 896 283 896 159 c 0
 896 36 795 -64 672 -64 c 2
 643 -64 l 1
 896 -384 l 1
 736 -384 l 1
 482 -64 l 1
 256 -64 l 1
 256 -384 l 1
 128 -384 l 1
 128 384 l 1
 672 384 l 2
672 256 m 2
 256 256 l 1
 256 64 l 1
 672 64 l 2
 725 64 768 108 768 160 c 0
 768 213 725 256 672 256 c 2
EndSplineSet
Validated: 1
EndChar

StartChar: s
Encoding: 115 115 17
Width: 1024
Flags: HW
LayerCount: 2
Fore
SplineSet
128 -384 m 5
 128 384 l 5
 256 384 l 5
 256 -172 l 5
 448 132 l 5
 576 132 l 5
 768 -172 l 5
 768 384 l 5
 896 384 l 5
 896 -384 l 5
 768 -384 l 5
 512 0 l 5
 256 -384 l 5
 128 -384 l 5
EndSplineSet
Validated: 1
EndChar

StartChar: t
Encoding: 116 116 18
Width: 1024
Flags: HW
LayerCount: 2
Fore
SplineSet
128 256 m 5
 128 384 l 5
 896 384 l 5
 896 256 l 5
 581 256 l 5
 896 -384 l 5
 768 -384 l 5
 512 128 l 5
 256 -384 l 5
 128 -384 l 5
 441 256 l 5
 128 256 l 5
EndSplineSet
Validated: 1
EndChar

StartChar: v
Encoding: 118 118 19
Width: 1024
Flags: HW
LayerCount: 2
Fore
SplineSet
768 -384 m 1
 768 -71 l 1
 128 -384 l 1
 128 -256 l 1
 640 0 l 1
 128 256 l 1
 128 384 l 1
 768 69 l 1
 768 384 l 1
 896 384 l 1
 896 -384 l 1
 768 -384 l 1
EndSplineSet
Validated: 1
EndChar

StartChar: w
Encoding: 119 119 20
Width: 1024
Flags: HW
LayerCount: 2
Fore
SplineSet
896 -384 m 5
 128 -384 l 5
 128 -256 l 5
 703 256 l 5
 128 256 l 5
 128 384 l 5
 896 384 l 5
 896 256 l 5
 321 -256 l 5
 896 -256 l 5
 896 -384 l 5
EndSplineSet
Validated: 1
EndChar

StartChar: z
Encoding: 122 122 21
Width: 1024
Flags: HW
LayerCount: 2
Fore
SplineSet
896 384 m 5
 896 -384 l 5
 768 -384 l 5
 768 172 l 5
 576 -132 l 5
 448 -132 l 5
 256 172 l 5
 256 -384 l 5
 128 -384 l 5
 128 384 l 5
 256 384 l 5
 512 0 l 5
 768 384 l 5
 896 384 l 5
EndSplineSet
Validated: 1
EndChar

StartChar: E
Encoding: 69 69 22
Width: 1024
VWidth: 1689
Flags: HW
LayerCount: 2
Fore
SplineSet
128 256 m 5
 128 384 l 5
 512 384 l 6
 618 384 709 347 784 272 c 4
 859 197 896 106 896 0 c 4
 896 -106 859 -197 784 -272 c 4
 709 -347 617 -384 512 -384 c 6
 128 -384 l 5
 128 -256 l 5
 512 -256 l 6
 583 -256 643 -231 693 -181 c 4
 743 -131 768 -71 768 0 c 4
 768 71 743 131 693 181 c 4
 643 231 583 256 512 256 c 6
 128 256 l 5
EndSplineSet
Validated: 1
EndChar

StartChar: uni00A0
Encoding: 160 160 23
Width: 1024
Flags: HW
LayerCount: 2
Back
SplineSet
0 16 m 29
 1024 16 l 29
 1024 -16 l 29
 0 -16 l 29
 0 16 l 29
EndSplineSet
Fore
Validated: 1
EndChar

StartChar: comma
Encoding: 44 44 24
Width: 1024
Flags: HW
LayerCount: 2
Fore
SplineSet
422 0 m 4
 422 50 462 91 512 91 c 4
 562 91 602 50 602 0 c 4
 602 -50 562 -91 512 -91 c 4
 462 -91 422 -50 422 0 c 4
EndSplineSet
Validated: 1
EndChar

StartChar: uni008B
Encoding: 139 139 25
Width: 1024
Flags: H
LayerCount: 2
Back
SplineSet
331.125 -180.875 m 1
 377.5 -227.25 441.5 -256 512 -256 c 0
 582.5 -256 646.5 -227.25 692.875 -180.875 c 1025
692.875 -180.875 m 5
 739.25 -134.5 768 -70.5 768 0 c 4
 768 70.5 739.25 134.5 692.875 180.875 c 1025
692.875 180.875 m 1
 646.5 227.25 582.5 256 512 256 c 0
 441.5 256 377.5 227.25 331.125 180.875 c 1025
331.125 180.875 m 1
 284.75 134.5 256 70.5 256 0 c 0
 256 -70.5 284.75 -134.5 331.125 -180.875 c 1025
783.5 271.5 m 1
 853 202 896 106 896 0 c 4
 896 -106 853 -202 783.5 -271.5 c 1029
783.5 -271.5 m 1
 714 -341 618 -384 512 -384 c 0
 406 -384 310 -341 240.5 -271.5 c 1025
240.5 -271.5 m 1
 171 -202 128 -106 128 0 c 0
 128 106 171 202 240.5 271.5 c 1025
240.5 271.5 m 1
 310 341 406 384 512 384 c 0
 618 384 714 341 783.5 271.5 c 1025
EndSplineSet
Fore
Validated: 1
EndChar

StartChar: zero
Encoding: 48 48 26
Width: 1024
Flags: HW
LayerCount: 2
Fore
SplineSet
256 256 m 1
 256 -256 l 1
 768 -256 l 5
 768 256 l 5
 256 256 l 1
896 384 m 5
 896 -384 l 5
 128 -384 l 1
 128 384 l 1
 896 384 l 5
EndSplineSet
Validated: 1
EndChar

StartChar: one
Encoding: 49 49 27
Width: 1024
Flags: HW
LayerCount: 2
Fore
SplineSet
576 -384 m 1
 448 -384 l 1
 448 384 l 1
 576 384 l 1
 576 -384 l 1
EndSplineSet
Validated: 1
EndChar

StartChar: two
Encoding: 50 50 28
Width: 1024
Flags: HW
LayerCount: 2
Fore
SplineSet
576 -384 m 5
 448 -384 l 5
 448 384 l 5
 896 384 l 5
 896 256 l 5
 576 256 l 5
 576 -384 l 5
EndSplineSet
Validated: 1
EndChar

StartChar: three
Encoding: 51 51 29
Width: 1024
Flags: HW
LayerCount: 2
Fore
SplineSet
576 -384 m 5
 448 -384 l 5
 448 -64 l 5
 128 -64 l 5
 128 64 l 5
 448 64 l 5
 448 384 l 5
 896 384 l 5
 896 256 l 5
 576 256 l 5
 576 -384 l 5
EndSplineSet
Validated: 1
EndChar

StartChar: four
Encoding: 52 52 30
Width: 1024
Flags: HW
LayerCount: 2
Fore
SplineSet
576 -384 m 1
 448 -384 l 1
 448 -64 l 1
 128 -64 l 1
 128 384 l 1
 256 384 l 1
 256 64 l 1
 448 64 l 1
 448 384 l 1
 896 384 l 1
 896 256 l 1
 576 256 l 1
 576 -384 l 1
EndSplineSet
Validated: 1
EndChar

StartChar: five
Encoding: 53 53 31
Width: 1024
Flags: HW
LayerCount: 2
Fore
SplineSet
448 -256 m 1
 448 -64 l 1
 128 -64 l 1
 128 384 l 1
 256 384 l 1
 256 64 l 1
 448 64 l 1
 448 384 l 1
 896 384 l 1
 896 256 l 1
 576 256 l 1
 576 -384 l 1
 128 -384 l 1
 128 -256 l 1
 448 -256 l 1
EndSplineSet
Validated: 1
EndChar

StartChar: six
Encoding: 54 54 32
Width: 1024
Flags: HW
LayerCount: 2
Fore
SplineSet
448 -64 m 1
 128 -64 l 1
 128 384 l 1
 256 384 l 1
 256 64 l 1
 448 64 l 1
 448 384 l 1
 896 384 l 1
 896 256 l 1
 576 256 l 1
 576 64 l 1
 896 64 l 1
 896 -64 l 1
 576 -64 l 1
 576 -384 l 1
 128 -384 l 1
 128 -256 l 1
 448 -256 l 1
 448 -64 l 1
EndSplineSet
Validated: 1
EndChar

StartChar: seven
Encoding: 55 55 33
Width: 1024
Flags: HW
LayerCount: 2
Fore
SplineSet
448 -64 m 1
 128 -64 l 1
 128 384 l 1
 256 384 l 1
 256 64 l 1
 448 64 l 1
 448 384 l 1
 896 384 l 1
 896 256 l 1
 576 256 l 1
 576 64 l 1
 896 64 l 1
 896 -384 l 1
 768 -384 l 1
 768 -64 l 1
 576 -64 l 1
 576 -384 l 1
 128 -384 l 1
 128 -256 l 1
 448 -256 l 1
 448 -64 l 1
EndSplineSet
Validated: 1
EndChar

StartChar: eight
Encoding: 56 56 34
Width: 1024
Flags: HW
LayerCount: 2
Fore
SplineSet
448 -64 m 5
 128 -64 l 5
 128 384 l 5
 896 384 l 5
 896 256 l 5
 576 256 l 5
 576 64 l 5
 896 64 l 5
 896 -384 l 5
 768 -384 l 5
 768 -64 l 5
 576 -64 l 5
 576 -384 l 5
 128 -384 l 5
 128 -256 l 5
 448 -256 l 5
 448 -64 l 5
256 256 m 5
 256 64 l 5
 448 64 l 5
 448 256 l 5
 256 256 l 5
EndSplineSet
Validated: 1
EndChar

StartChar: nine
Encoding: 57 57 35
Width: 1024
Flags: HW
LayerCount: 2
Fore
SplineSet
256 256 m 5
 256 64 l 5
 448 64 l 5
 448 256 l 5
 256 256 l 5
448 -64 m 5
 128 -64 l 5
 128 384 l 5
 896 384 l 5
 896 256 l 5
 576 256 l 5
 576 64 l 5
 896 64 l 5
 896 -384 l 5
 128 -384 l 5
 128 -256 l 5
 448 -256 l 5
 448 -64 l 5
768 -256 m 5
 768 -64 l 5
 576 -64 l 5
 576 -256 l 5
 768 -256 l 5
EndSplineSet
Validated: 1
EndChar

StartChar: u
Encoding: 117 117 36
Width: 1024
VWidth: 1689
Flags: HW
LayerCount: 2
Fore
SplineSet
256 384 m 5
 256 0 l 6
 256 -71 281 -131 331 -181 c 4
 381 -231 441 -256 512 -256 c 4
 583 -256 643 -231 693 -181 c 4
 743 -131 768 -71 768 0 c 6
 768 384 l 5
 896 384 l 5
 896 0 l 6
 896 -105 859 -197 784 -272 c 4
 709 -347 618 -384 512 -384 c 4
 406 -384 315 -347 240 -272 c 4
 165 -197 128 -106 128 0 c 6
 128 384 l 5
 256 384 l 5
EndSplineSet
Validated: 1
EndChar

StartChar: H
Encoding: 72 72 37
Width: 1024
Flags: HW
LayerCount: 2
Fore
SplineSet
896 -384 m 5
 128 -384 l 5
 128 -256 l 5
 684 -256 l 5
 380 -64 l 5
 380 64 l 5
 684 256 l 5
 128 256 l 5
 128 384 l 5
 896 384 l 5
 896 256 l 5
 512 0 l 5
 896 -256 l 5
 896 -384 l 5
EndSplineSet
Validated: 1
EndChar

StartChar: o
Encoding: 111 111 38
Width: 1024
VWidth: 1689
Flags: HW
LayerCount: 2
Fore
SplineSet
896 256 m 5
 512 256 l 6
 441 256 381 231 331 181 c 4
 281 131 256 71 256 0 c 4
 256 -71 281 -131 331 -181 c 4
 381 -231 441 -256 512 -256 c 6
 896 -256 l 5
 896 -384 l 5
 512 -384 l 6
 407 -384 315 -347 240 -272 c 4
 165 -197 128 -106 128 0 c 4
 128 106 165 197 240 272 c 4
 315 347 406 384 512 384 c 6
 896 384 l 5
 896 256 l 5
EndSplineSet
Validated: 1
EndChar

StartChar: question
Encoding: 63 63 39
Width: 1024
Flags: H
LayerCount: 2
Back
SplineSet
448 256 m 5
 576 256 l 5
 576 64 l 5
 704 64 l 5
 704 -64 l 5
 576 -64 l 5
 576 -256 l 5
 448 -256 l 5
 448 256 l 5
EndSplineSet
Fore
Validated: 1
EndChar

StartChar: underscore
Encoding: 95 95 40
Width: 1024
Flags: H
LayerCount: 2
Fore
SplineSet
128 64 m 1
 896 64 l 1
 896 -64 l 5
 128 -64 l 1
 128 64 l 1
EndSplineSet
Validated: 1
EndChar

StartChar: I
Encoding: 73 73 41
Width: 1024
VWidth: 1689
Flags: HW
LayerCount: 2
Fore
SplineSet
768 -384 m 5
 768 0 l 6
 768 71 743 131 693 181 c 4
 643 231 583 256 512 256 c 4
 441 256 381 231 331 181 c 4
 281 131 256 71 256 0 c 6
 256 -384 l 5
 128 -384 l 5
 128 0 l 6
 128 105 165 197 240 272 c 4
 315 347 406 384 512 384 c 4
 618 384 709 347 784 272 c 4
 859 197 896 106 896 0 c 6
 896 -384 l 5
 768 -384 l 5
EndSplineSet
Validated: 1
EndChar

StartChar: O
Encoding: 79 79 42
Width: 1024
VWidth: 1689
Flags: HW
LayerCount: 2
Fore
SplineSet
896 256 m 5
 512 256 l 6
 441 256 381 231 331 181 c 4
 281 131 256 71 256 0 c 4
 256 -71 281 -131 331 -181 c 4
 381 -231 441 -256 512 -256 c 6
 896 -256 l 5
 896 -384 l 5
 512 -384 l 6
 407 -384 315 -347 240 -272 c 4
 165 -197 128 -106 128 0 c 4
 128 106 165 197 240 272 c 4
 315 347 406 384 512 384 c 6
 896 384 l 5
 896 256 l 5
EndSplineSet
Validated: 1
EndChar

StartChar: y
Encoding: 121 121 43
Width: 1024
Flags: HW
LayerCount: 2
Fore
SplineSet
896 -384 m 5
 768 -384 l 5
 768 191 l 5
 256 -384 l 5
 128 -384 l 5
 128 384 l 5
 256 384 l 5
 256 -191 l 5
 768 384 l 5
 896 384 l 5
 896 -384 l 5
EndSplineSet
Validated: 1
EndChar

StartChar: B
Encoding: 66 66 44
Width: 1024
Flags: HW
LayerCount: 2
Fore
SplineSet
672 -256 m 6
 725 -256 768 -213 768 -160 c 4
 768 -108 725 -64 672 -64 c 6
 256 -64 l 1
 256 -256 l 1
 672 -256 l 6
672 -384 m 6
 128 -384 l 1
 128 384 l 1
 896 384 l 1
 896 256 l 1
 256 256 l 1
 256 64 l 1
 672 64 l 6
 795 64 896 -36 896 -159 c 4
 896 -283 796 -384 672 -384 c 6
EndSplineSet
EndChar

StartChar: D
Encoding: 68 68 45
Width: 1024
Flags: HW
LayerCount: 2
Fore
SplineSet
352 -256 m 6
 768 -256 l 5
 768 -64 l 5
 352 -64 l 6
 299 -64 256 -108 256 -160 c 4
 256 -213 299 -256 352 -256 c 6
352 -384 m 6
 228 -384 128 -283 128 -159 c 4
 128 -36 229 64 352 64 c 6
 768 64 l 5
 768 256 l 5
 128 256 l 5
 128 384 l 5
 896 384 l 5
 896 -384 l 5
 352 -384 l 6
EndSplineSet
EndChar

StartChar: F
Encoding: 70 70 46
Width: 1024
Flags: HW
LayerCount: 2
Fore
SplineSet
128 384 m 5
 896 384 l 5
 896 256 l 5
 340 256 l 5
 644 64 l 5
 644 -64 l 5
 340 -256 l 5
 896 -256 l 5
 896 -384 l 5
 128 -384 l 5
 128 -256 l 5
 512 0 l 5
 128 256 l 5
 128 384 l 5
EndSplineSet
Validated: 1
EndChar

StartChar: G
Encoding: 71 71 47
Width: 1024
Flags: HW
LayerCount: 2
Fore
SplineSet
352 256 m 6
 299 256 256 213 256 160 c 4
 256 108 299 64 352 64 c 6
 768 64 l 1
 768 256 l 1
 352 256 l 6
352 384 m 6
 896 384 l 1
 896 -384 l 1
 128 -384 l 1
 128 -256 l 1
 768 -256 l 1
 768 -64 l 1
 352 -64 l 6
 229 -64 128 36 128 159 c 4
 128 283 228 384 352 384 c 6
EndSplineSet
EndChar

StartChar: K
Encoding: 75 75 48
Width: 1024
Flags: HW
LayerCount: 2
Fore
SplineSet
128 -256 m 1
 441 -256 l 1
 128 384 l 1
 256 384 l 1
 512 -128 l 1
 768 384 l 1
 896 384 l 1
 581 -256 l 1
 896 -256 l 1
 896 -384 l 1
 128 -384 l 1
 128 -256 l 1
EndSplineSet
Validated: 1
EndChar

StartChar: L
Encoding: 76 76 49
Width: 1024
Flags: HW
LayerCount: 2
Fore
SplineSet
352 384 m 6
 896 384 l 5
 896 -384 l 5
 768 -384 l 5
 768 -64 l 5
 542 -64 l 5
 288 -384 l 5
 128 -384 l 5
 381 -64 l 5
 352 -64 l 6
 229 -64 128 36 128 159 c 4
 128 283 228 384 352 384 c 6
352 256 m 6
 299 256 256 213 256 160 c 4
 256 108 299 64 352 64 c 6
 768 64 l 5
 768 256 l 5
 352 256 l 6
EndSplineSet
Validated: 1
EndChar

StartChar: M
Encoding: 77 77 50
Width: 1024
Flags: HW
LayerCount: 2
Fore
SplineSet
128 -384 m 5
 128 -256 l 5
 703 -256 l 5
 128 256 l 5
 128 384 l 5
 896 384 l 5
 896 256 l 5
 321 256 l 5
 896 -256 l 5
 896 -384 l 5
 128 -384 l 5
EndSplineSet
Validated: 1
EndChar

StartChar: N
Encoding: 78 78 51
Width: 1024
Flags: HW
LayerCount: 2
Fore
SplineSet
128 -384 m 5
 128 384 l 5
 256 384 l 5
 768 -191 l 5
 768 384 l 5
 896 384 l 5
 896 -384 l 5
 768 -384 l 5
 256 191 l 5
 256 -384 l 5
 128 -384 l 5
EndSplineSet
Validated: 1
EndChar

StartChar: P
Encoding: 80 80 52
Width: 1024
Flags: HW
LayerCount: 2
Fore
SplineSet
672 256 m 6
 256 256 l 5
 256 64 l 5
 672 64 l 6
 725 64 768 108 768 160 c 4
 768 213 725 256 672 256 c 6
672 384 m 6
 796 384 896 283 896 159 c 4
 896 36 795 -64 672 -64 c 6
 256 -64 l 5
 256 -256 l 5
 896 -256 l 5
 896 -384 l 5
 128 -384 l 5
 128 384 l 5
 672 384 l 6
EndSplineSet
EndChar

StartChar: R
Encoding: 82 82 53
Width: 1024
Flags: HW
LayerCount: 2
Fore
SplineSet
672 384 m 2
 796 384 896 283 896 159 c 0
 896 36 795 -64 672 -64 c 2
 643 -64 l 1
 896 -384 l 1
 736 -384 l 1
 482 -64 l 1
 256 -64 l 1
 256 -384 l 1
 128 -384 l 1
 128 384 l 1
 672 384 l 2
672 256 m 2
 256 256 l 1
 256 64 l 1
 672 64 l 2
 725 64 768 108 768 160 c 0
 768 213 725 256 672 256 c 2
EndSplineSet
Validated: 1
EndChar

StartChar: S
Encoding: 83 83 54
Width: 1024
Flags: HW
LayerCount: 2
Fore
SplineSet
128 -384 m 5
 128 384 l 5
 256 384 l 5
 256 -172 l 5
 448 132 l 5
 576 132 l 5
 768 -172 l 5
 768 384 l 5
 896 384 l 5
 896 -384 l 5
 768 -384 l 5
 512 0 l 5
 256 -384 l 5
 128 -384 l 5
EndSplineSet
Validated: 1
EndChar

StartChar: T
Encoding: 84 84 55
Width: 1024
Flags: HW
LayerCount: 2
Fore
SplineSet
128 256 m 5
 128 384 l 5
 896 384 l 5
 896 256 l 5
 581 256 l 5
 896 -384 l 5
 768 -384 l 5
 512 128 l 5
 256 -384 l 5
 128 -384 l 5
 441 256 l 5
 128 256 l 5
EndSplineSet
Validated: 1
EndChar

StartChar: V
Encoding: 86 86 56
Width: 1024
Flags: HW
LayerCount: 2
Fore
SplineSet
768 -384 m 1
 768 -71 l 1
 128 -384 l 1
 128 -256 l 1
 640 0 l 1
 128 256 l 1
 128 384 l 1
 768 69 l 1
 768 384 l 1
 896 384 l 1
 896 -384 l 1
 768 -384 l 1
EndSplineSet
Validated: 1
EndChar

StartChar: W
Encoding: 87 87 57
Width: 1024
Flags: HW
LayerCount: 2
Fore
SplineSet
896 -384 m 5
 128 -384 l 5
 128 -256 l 5
 703 256 l 5
 128 256 l 5
 128 384 l 5
 896 384 l 5
 896 256 l 5
 321 -256 l 5
 896 -256 l 5
 896 -384 l 5
EndSplineSet
Validated: 1
EndChar

StartChar: Y
Encoding: 89 89 58
Width: 1024
Flags: HW
LayerCount: 2
Fore
SplineSet
896 -384 m 5
 768 -384 l 5
 768 191 l 5
 256 -384 l 5
 128 -384 l 5
 128 384 l 5
 256 384 l 5
 256 -191 l 5
 768 384 l 5
 896 384 l 5
 896 -384 l 5
EndSplineSet
Validated: 1
EndChar

StartChar: Z
Encoding: 90 90 59
Width: 1024
Flags: HW
LayerCount: 2
Fore
SplineSet
896 384 m 5
 896 -384 l 5
 768 -384 l 5
 768 172 l 5
 576 -132 l 5
 448 -132 l 5
 256 172 l 5
 256 -384 l 5
 128 -384 l 5
 128 384 l 5
 256 384 l 5
 512 0 l 5
 768 384 l 5
 896 384 l 5
EndSplineSet
Validated: 1
EndChar

StartChar: U
Encoding: 85 85 60
Width: 1024
VWidth: 1689
Flags: HW
LayerCount: 2
Fore
SplineSet
256 384 m 5
 256 0 l 6
 256 -71 281 -131 331 -181 c 4
 381 -231 441 -256 512 -256 c 4
 583 -256 643 -231 693 -181 c 4
 743 -131 768 -71 768 0 c 6
 768 384 l 5
 896 384 l 5
 896 0 l 6
 896 -105 859 -197 784 -272 c 4
 709 -347 618 -384 512 -384 c 4
 406 -384 315 -347 240 -272 c 4
 165 -197 128 -106 128 0 c 6
 128 384 l 5
 256 384 l 5
EndSplineSet
Validated: 1
EndChar

StartChar: a
Encoding: 97 97 61
Width: 1024
VWidth: 1689
Flags: HW
LayerCount: 2
Fore
SplineSet
896 256 m 5
 512 256 l 6
 441 256 381 231 331 181 c 4
 281 131 256 71 256 0 c 4
 256 -71 281 -131 331 -181 c 4
 381 -231 441 -256 512 -256 c 6
 896 -256 l 5
 896 -384 l 5
 512 -384 l 6
 407 -384 315 -347 240 -272 c 4
 165 -197 128 -106 128 0 c 4
 128 106 165 197 240 272 c 4
 315 347 406 384 512 384 c 6
 896 384 l 5
 896 256 l 5
EndSplineSet
Validated: 1
EndChar

StartChar: A
Encoding: 65 65 62
Width: 1024
VWidth: 1689
Flags: HW
LayerCount: 2
Fore
SplineSet
896 256 m 5
 512 256 l 6
 441 256 381 231 331 181 c 4
 281 131 256 71 256 0 c 4
 256 -71 281 -131 331 -181 c 4
 381 -231 441 -256 512 -256 c 6
 896 -256 l 5
 896 -384 l 5
 512 -384 l 6
 407 -384 315 -347 240 -272 c 4
 165 -197 128 -106 128 0 c 4
 128 106 165 197 240 272 c 4
 315 347 406 384 512 384 c 6
 896 384 l 5
 896 256 l 5
EndSplineSet
Validated: 1
EndChar

StartChar: j
Encoding: 106 106 63
Width: 1024
Flags: HW
LayerCount: 2
Fore
SplineSet
896 -384 m 5
 768 -384 l 5
 768 191 l 5
 256 -384 l 5
 128 -384 l 5
 128 384 l 5
 256 384 l 5
 256 -191 l 5
 768 384 l 5
 896 384 l 5
 896 -384 l 5
EndSplineSet
Validated: 1
EndChar

StartChar: J
Encoding: 74 74 64
Width: 1024
Flags: HW
LayerCount: 2
Fore
SplineSet
896 -384 m 5
 768 -384 l 5
 768 191 l 5
 256 -384 l 5
 128 -384 l 5
 128 384 l 5
 256 384 l 5
 256 -191 l 5
 768 384 l 5
 896 384 l 5
 896 -384 l 5
EndSplineSet
Validated: 1
EndChar

StartChar: x
Encoding: 120 120 65
Width: 1024
Flags: HW
LayerCount: 2
Fore
SplineSet
896 -384 m 5
 128 -384 l 5
 128 -256 l 5
 684 -256 l 5
 380 -64 l 5
 380 64 l 5
 684 256 l 5
 128 256 l 5
 128 384 l 5
 896 384 l 5
 896 256 l 5
 512 0 l 5
 896 -256 l 5
 896 -384 l 5
EndSplineSet
Validated: 1
EndChar

StartChar: X
Encoding: 88 88 66
Width: 1024
Flags: HW
LayerCount: 2
Fore
SplineSet
896 -384 m 5
 128 -384 l 5
 128 -256 l 5
 684 -256 l 5
 380 -64 l 5
 380 64 l 5
 684 256 l 5
 128 256 l 5
 128 384 l 5
 896 384 l 5
 896 256 l 5
 512 0 l 5
 896 -256 l 5
 896 -384 l 5
EndSplineSet
Validated: 1
EndChar

StartChar: c
Encoding: 99 99 67
Width: 1024
Flags: HW
LayerCount: 2
Fore
SplineSet
256 -384 m 5
 128 -384 l 5
 128 384 l 5
 256 384 l 5
 256 69 l 5
 896 384 l 5
 896 256 l 5
 384 0 l 5
 896 -256 l 5
 896 -384 l 5
 256 -71 l 5
 256 -384 l 5
EndSplineSet
Validated: 1
EndChar

StartChar: C
Encoding: 67 67 68
Width: 1024
Flags: HW
LayerCount: 2
Fore
SplineSet
256 -384 m 5
 128 -384 l 5
 128 384 l 5
 256 384 l 5
 256 69 l 5
 896 384 l 5
 896 256 l 5
 384 0 l 5
 896 -256 l 5
 896 -384 l 5
 256 -71 l 5
 256 -384 l 5
EndSplineSet
Validated: 1
EndChar

StartChar: q
Encoding: 113 113 69
Width: 1024
Flags: HW
LayerCount: 2
Fore
SplineSet
256 -384 m 5
 128 -384 l 5
 128 384 l 5
 256 384 l 5
 256 69 l 5
 896 384 l 5
 896 256 l 5
 384 0 l 5
 896 -256 l 5
 896 -384 l 5
 256 -71 l 5
 256 -384 l 5
EndSplineSet
Validated: 1
EndChar

StartChar: Q
Encoding: 81 81 70
Width: 1024
Flags: HW
LayerCount: 2
Fore
SplineSet
256 -384 m 5
 128 -384 l 5
 128 384 l 5
 256 384 l 5
 256 69 l 5
 896 384 l 5
 896 256 l 5
 384 0 l 5
 896 -256 l 5
 896 -384 l 5
 256 -71 l 5
 256 -384 l 5
EndSplineSet
Validated: 1
EndChar

StartChar: semicolon
Encoding: 59 59 71
Width: 1024
Flags: HW
LayerCount: 2
Fore
SplineSet
230 192 m 0
 230 242 270 283 320 283 c 0
 370 283 410 242 410 192 c 0
 410 142 370 101 320 101 c 0
 270 101 230 142 230 192 c 0
614 192 m 0
 614 242 654 283 704 283 c 0
 754 283 794 242 794 192 c 0
 794 142 754 101 704 101 c 0
 654 101 614 142 614 192 c 0
614 -192 m 0
 614 -142 654 -101 704 -101 c 0
 754 -101 794 -142 794 -192 c 0
 794 -242 754 -283 704 -283 c 0
 654 -283 614 -242 614 -192 c 0
230 -192 m 0
 230 -142 270 -101 320 -101 c 0
 370 -101 410 -142 410 -192 c 0
 410 -242 370 -283 320 -283 c 0
 270 -283 230 -242 230 -192 c 0
EndSplineSet
Validated: 1
EndChar

StartChar: colon
Encoding: 58 58 72
Width: 1024
Flags: HW
LayerCount: 2
Fore
SplineSet
230 -192 m 0
 230 -142 270 -101 320 -101 c 0
 370 -101 410 -142 410 -192 c 0
 410 -242 370 -283 320 -283 c 0
 270 -283 230 -242 230 -192 c 0
614 -192 m 0
 614 -142 654 -101 704 -101 c 0
 754 -101 794 -142 794 -192 c 0
 794 -242 754 -283 704 -283 c 0
 654 -283 614 -242 614 -192 c 0
422 192 m 0
 422 242 462 283 512 283 c 0
 562 283 602 242 602 192 c 0
 602 142 562 101 512 101 c 0
 462 101 422 142 422 192 c 0
EndSplineSet
Validated: 1
EndChar

StartChar: exclam
Encoding: 33 33 73
Width: 1024
Flags: HW
LayerCount: 2
Fore
SplineSet
256 256 m 5
 256 64 l 5
 448 64 l 5
 448 256 l 5
 256 256 l 5
768 64 m 5
 768 256 l 5
 576 256 l 5
 576 64 l 5
 768 64 l 5
128 384 m 5
 896 384 l 5
 896 -384 l 5
 128 -384 l 5
 128 -256 l 5
 448 -256 l 5
 448 -64 l 5
 128 -64 l 5
 128 384 l 5
768 -64 m 5
 576 -64 l 5
 576 -256 l 5
 768 -256 l 5
 768 -64 l 5
EndSplineSet
Validated: 1
EndChar

StartChar: at
Encoding: 64 64 74
Width: 1024
Flags: HW
LayerCount: 2
Fore
SplineSet
576 -256 m 1
 768 -256 l 1
 768 -64 l 1
 576 -64 l 1
 576 -256 l 1
448 -64 m 1
 256 -64 l 1
 256 -256 l 1
 448 -256 l 1
 448 -64 l 1
576 256 m 1
 576 64 l 1
 768 64 l 1
 768 256 l 1
 576 256 l 1
256 256 m 1
 256 64 l 1
 448 64 l 1
 448 256 l 1
 256 256 l 1
896 384 m 1
 896 -384 l 1
 128 -384 l 1
 128 384 l 1
 896 384 l 1
EndSplineSet
Validated: 1
EndChar
